<svg id="Layer_1" data-name="Layer 1" xmlns="http://www.w3.org/2000/svg" viewBox="0 0 800 800"><defs><style>.cls-1{fill:#ed4e84;}.cls-2{font-size:122.2879px;fill:#231f20;font-family:Montserrat-Light, Montserrat;font-weight:300;}.cls-3{fill:#151325;}</style></defs><title>Nikita Portfolio Skills Icon Set</title><path class="cls-1" d="M400,773.62056c-206.01434,0-373.61983-167.60548-373.61983-373.61983C26.38017,193.98492,193.98566,26.37944,400,26.37944S773.61983,193.98492,773.61983,400.00073C773.61983,606.01508,606.01434,773.62056,400,773.62056ZM400,116.615c-156.25848,0-283.38428,127.12579-283.38428,283.38574C116.61572,556.25922,243.74152,683.385,400,683.385S683.38428,556.25922,683.38428,400.00073C683.38428,243.74078,556.25848,116.615,400,116.615Z"/><text class="cls-2" transform="translate(297.34009 429.65387)">C++</text><path class="cls-3" d="M400,26.37944V116.615c156.25848,0,283.38428,127.12579,283.38428,283.38574C683.38428,556.25922,556.25848,683.385,400,683.385S116.61572,556.25922,116.61572,400.00073c0-100.11681,52.18616-188.27363,130.78427-238.69792L182.49546,96.39828C88.03012,164.26789,26.38017,275.06474,26.38017,400.00073c0,206.01435,167.60549,373.61983,373.61983,373.61983S773.61983,606.01508,773.61983,400.00073C773.61983,193.98492,606.01434,26.37944,400,26.37944Z"/></svg>