<svg id="Layer_1" data-name="Layer 1" xmlns="http://www.w3.org/2000/svg" viewBox="0 0 800 800"><defs><style>.cls-1{fill:#efefd0;}.cls-2{font-size:122.2879px;fill:#231f20;font-family:Montserrat-Light, Montserrat;font-weight:300;}.cls-3{fill:#f26b3b;}</style></defs><title>Nikita Portfolio Skills Icon Set</title><path class="cls-1" d="M400,773.62056c-206.01434,0-373.61983-167.60548-373.61983-373.61983C26.38017,193.98492,193.98566,26.37944,400,26.37944S773.61983,193.98492,773.61983,400.00073C773.61983,606.01508,606.01434,773.62056,400,773.62056ZM400,116.615c-156.25848,0-283.38428,127.12579-283.38428,283.38574C116.61572,556.25922,243.74152,683.385,400,683.385S683.38428,556.25922,683.38428,400.00073C683.38428,243.74078,556.25848,116.615,400,116.615Z"/><text class="cls-2" transform="translate(169.61301 429.65417)">MS SQL</text><path class="cls-3" d="M400.00029,26.37937v90.23572c156.258,0,283.38419,127.12589,283.38419,283.38563,0,156.25859-127.12617,283.38447-283.38419,283.38447-156.2586,0-283.38448-127.12588-283.38448-283.38447v-.00058H26.38037v.00058c0,206.01439,167.60553,373.61991,373.61992,373.61991,206.0141,0,373.61934-167.60552,373.61934-373.61991C773.61963,193.98489,606.01439,26.37937,400.00029,26.37937Z"/></svg>