<svg id="Layer_1" data-name="Layer 1" xmlns="http://www.w3.org/2000/svg" viewBox="0 0 800 800"><defs><style>.cls-1{fill:#efefd0;}.cls-2{font-size:94.07354px;fill:#231f20;font-family:Montserrat-Light, Montserrat;font-weight:300;}.cls-3{letter-spacing:-0.00799em;}.cls-4{letter-spacing:-0.00001em;}.cls-5{fill:#f26b3b;}</style></defs><title>Nikita Portfolio Skills Icon Set</title><path class="cls-1" d="M400,773.62056c-206.01434,0-373.61983-167.60548-373.61983-373.61983C26.38017,193.98492,193.98566,26.37944,400,26.37944S773.61983,193.98492,773.61983,400.00073C773.61983,606.01508,606.01434,773.62056,400,773.62056ZM400,116.615c-156.25848,0-283.38428,127.12579-283.38428,283.38574C116.61572,556.25922,243.74152,683.385,400,683.385S683.38428,556.25922,683.38428,400.00073C683.38428,243.74078,556.25848,116.615,400,116.615Z"/><text class="cls-2" transform="translate(134.33893 422.81256)">Pos<tspan class="cls-3" x="163.02832" y="0">t</tspan><tspan class="cls-4" x="198.49414" y="0">greSQL</tspan></text><path class="cls-5" d="M400.00029,26.37937v90.23572c156.2583,0,283.38447,127.12589,283.38447,283.38563,0,156.25859-127.12617,283.38447-283.38447,283.38447-156.25888,0-283.38448-127.12588-283.38448-283.38447a281.87618,281.87618,0,0,1,54.71814-167.20733l-72.7956-53.22987a371.56863,371.56863,0,0,0-72.15826,220.4372c0,206.01439,167.60581,373.61991,373.6202,373.61991,206.01381,0,373.61962-167.60552,373.61962-373.61991C773.61991,193.98489,606.0141,26.37937,400.00029,26.37937Z"/></svg>